<?xml version="1.0" standalone="no"?>
<!DOCTYPE svg PUBLIC "-//W3C//DTD SVG 20010904//EN"
 "http://www.w3.org/TR/2001/REC-SVG-20010904/DTD/svg10.dtd">
<svg version="1.0" xmlns="http://www.w3.org/2000/svg"
 width="188.000000pt" height="188.000000pt" viewBox="0 0 188.000000 188.000000"
 preserveAspectRatio="xMidYMid meet">

<g transform="translate(0.000000,188.000000) scale(0.100000,-0.100000)"
fill="#000000" stroke="none">
<path d="M838 1683 c-301 -285 -648 -603 -657 -603 -22 0 -10 -27 31 -67 71
-69 74 -68 254 97 167 154 231 204 332 257 82 43 138 44 245 4 84 -32 110 -50
262 -191 217 -201 263 -238 289 -233 24 5 116 93 116 111 0 14 -199 204 -208
198 -5 -3 -24 11 -43 32 l-34 37 40 -35 c22 -19 -16 23 -85 93 -69 70 -127
127 -130 127 -2 0 38 -43 90 -95 52 -52 91 -95 87 -95 -4 0 -103 89 -220 199
-117 109 -226 211 -244 225 l-32 27 -93 -88z"/>
<path d="M498 563 c-2 -230 1 -361 7 -366 7 -6 403 -3 432 3 4 0 3 189 -4 458
l-6 262 -213 0 -213 0 -3 -357z"/>
<path d="M1100 853 l0 -27 16 22 c11 17 25 22 58 22 23 0 47 -5 54 -12 9 -9
12 -8 12 5 0 14 -11 17 -70 17 -70 0 -70 0 -70 -27z"/>
<path d="M1281 848 c0 -18 3 -26 6 -18 9 22 24 30 58 30 27 0 30 -4 32 -33 1
-17 8 -42 15 -55 16 -32 28 -10 28 56 l0 52 -70 0 -70 0 1 -32z"/>
<path d="M1293 753 c9 -2 23 -2 30 0 6 3 -1 5 -18 5 -16 0 -22 -2 -12 -5z"/>
<path d="M1100 635 l0 -65 70 0 70 0 0 30 c0 17 -2 30 -4 30 -1 0 -17 -5 -35
-11 -17 -6 -43 -8 -56 -5 -21 5 -25 12 -25 46 0 22 -4 40 -10 40 -6 0 -10 -28
-10 -65z"/>
<path d="M1286 669 c-3 -17 -6 -47 -6 -65 l0 -34 70 0 70 0 0 44 c0 48 -8 60
-30 46 -19 -12 -40 -1 -40 21 0 14 -7 19 -29 19 -24 0 -29 -5 -35 -31z"/>
<path d="M1138 523 c29 -2 74 -2 100 0 26 2 2 3 -53 3 -55 0 -76 -1 -47 -3z"/>
<path d="M293 203 c20 -2 54 -2 75 0 20 2 3 4 -38 4 -41 0 -58 -2 -37 -4z"/>
</g>
</svg>
